<?xml version="1.0" encoding="UTF-8"?>
<svg width="154px" height="213px" viewBox="0 0 154 213" version="1.1" xmlns="http://www.w3.org/2000/svg" xmlns:xlink="http://www.w3.org/1999/xlink">
    <title>小海豚</title>
    <defs>
        <linearGradient x1="29.0040095%" y1="-6.39111767%" x2="83.0017006%" y2="80.8161607%" id="linearGradient-1">
            <stop stop-color="#FFFFFF" offset="0%"></stop>
            <stop stop-color="#F6FEFF" offset="16.0001492%"></stop>
            <stop stop-color="#968BD6" offset="100%"></stop>
        </linearGradient>
        <path d="M77.5029175,9 C110.499727,9 137.311403,35.328343 137.844336,68.0077903 L137.852422,69 C137.852422,79.3897734 136.929876,89.7625613 135.197393,99.7540209 C135.386902,99.8323967 135.574228,99.9250417 135.757672,100.03129 C138.573928,101.662442 141.528238,103.926606 144.326128,106.708293 C152.467379,114.802395 156.201327,124.213203 152.666147,127.727934 C149.130943,131.242641 139.665316,127.530317 131.524065,119.436215 C131.280271,119.193833 131.040429,118.95027 130.804616,118.70572 C123.544935,143.454469 111.111792,163.857548 95.6017253,173.136163 C95.3614954,173.318834 95.097298,173.494124 94.8089948,173.659671 C87.66267,177.763178 77.2043653,185.677343 75.5510389,192.672286 C75.5294236,192.763736 75.5024651,192.847511 75.4702924,192.92392 C75.2255174,194.025123 74.9307596,195.146276 74.5849001,196.277531 C71.4361876,206.576506 65.244358,213.81283 60.7550614,212.440314 C56.2657649,211.067799 55.1790068,201.606187 58.3277192,191.307212 C58.4161633,191.017925 58.5070083,190.731054 58.6001492,190.446722 C56.7863318,191.273636 54.800985,192.027747 52.6927927,192.672286 C42.3938183,195.820998 33.0631054,195.162392 31.8520622,191.201248 C30.8861869,188.042013 35.3769147,183.736192 42.4596401,180.524884 C42.5639028,180.442456 42.6898251,180.359779 42.8383116,180.276735 C43.9733399,179.641946 45.2358977,179.105282 46.5287129,178.633059 L47.0147469,178.45893 C47.5018193,178.287691 47.9914368,178.124921 48.4784698,177.968846 L48.9644512,177.814936 L49.4545449,177.66295 C54.9063757,175.987615 59.5844752,175.018265 56.0312361,172.172555 C55.7968942,171.984875 55.5676053,171.801085 55.343323,171.621129 C41.0116665,161.958871 29.790169,142.822956 23.3195295,118.574844 L23.0019999,118.90513 L22.4759449,119.436215 C14.3346943,127.530317 4.86906719,131.242641 1.33386315,127.727934 C-2.20131701,124.213203 1.53263119,114.802395 9.67388182,106.708293 C12.4717721,103.926606 15.4260818,101.662442 18.2423383,100.03129 C18.6114833,99.8174847 18.9963538,99.6587662 19.3920589,99.5502932 C17.9261825,89.8369594 17.1534134,79.5813897 17.1534134,69 C17.1534134,35.862915 44.1728067,9 77.5029175,9 Z" id="path-2"></path>
        <filter x="-6.8%" y="-5.2%" width="113.6%" height="110.3%" filterUnits="objectBoundingBox" id="filter-3">
            <feGaussianBlur stdDeviation="10" in="SourceAlpha" result="shadowBlurInner1"></feGaussianBlur>
            <feOffset dx="0" dy="1" in="shadowBlurInner1" result="shadowOffsetInner1"></feOffset>
            <feComposite in="shadowOffsetInner1" in2="SourceAlpha" operator="arithmetic" k2="-1" k3="1" result="shadowInnerInner1"></feComposite>
            <feColorMatrix values="0 0 0 0 1   0 0 0 0 1   0 0 0 0 1  0 0 0 1 0" type="matrix" in="shadowInnerInner1"></feColorMatrix>
        </filter>
        <linearGradient x1="27.3802685%" y1="39.9527122%" x2="40.6445702%" y2="58.1607653%" id="linearGradient-4">
            <stop stop-color="#353535" offset="0%"></stop>
            <stop stop-color="#181818" offset="100%"></stop>
        </linearGradient>
        <linearGradient x1="15.8135229%" y1="38.6082731%" x2="74.0584592%" y2="63.7407372%" id="linearGradient-5">
            <stop stop-color="#B5B0E3" offset="0%"></stop>
            <stop stop-color="#FFFFFF" offset="100%"></stop>
        </linearGradient>
    </defs>
    <g id="页面-1" stroke="none" stroke-width="1" fill="none" fill-rule="evenodd">
        <g id="画板" transform="translate(-123.000000, -112.000000)">
            <g id="小海豚" transform="translate(122.999995, 112.000000)">
                <path d="M77.0000049,0 C79.2951877,-4.21618244e-16 81.2411025,1.6876829 81.5656903,3.95979797 L84.1847039,22.2928932 C84.5752282,25.0265633 82.6757333,27.5592232 79.9420633,27.9497475 C79.7078468,27.983207 79.4715508,28 79.2349565,28 L74.7650534,28 C72.0036296,28 69.7650534,25.7614237 69.7650534,23 C69.7650534,22.7634057 69.7818464,22.5271097 69.8153059,22.2928932 L72.4343195,3.95979797 C72.7589074,1.6876829 74.7048221,4.21618244e-16 77.0000049,0 Z" id="矩形" fill="#E6EBF9"></path>
                <g id="形状结合">
                    <use fill="url(#linearGradient-1)" fill-rule="evenodd" xlink:href="#path-2"></use>
                    <use fill="black" fill-opacity="1" filter="url(#filter-3)" xlink:href="#path-2"></use>
                </g>
                <path d="M31.0000049,84.3243243 C17.9038852,84.3243243 37.0395514,174 77.0000049,174 C116.960458,174 135.081337,84.3243243 124.000005,84.3243243 C112.918673,84.3243243 93.728417,66 76.3458315,66 C59.4670061,66 44.0961247,84.3243243 31.0000049,84.3243243 Z" id="路径-5" fill="#F1F0FF"></path>
                <path d="M64.0000049,78 C68.3333382,80.6666667 72.6666716,82 77.0000049,82 C81.3333382,82 85.6666716,80.6666667 90.0000049,78" id="路径-7" stroke="#AEA7E1" stroke-width="2" stroke-linecap="round"></path>
                <path d="M76.9473861,25.5 C92.9130243,25.5 105.803288,30.6542822 114.121376,38.5870797 C118.509565,42.7720095 121.621987,47.728745 123.233863,53.1024734 C124.807132,58.3474932 124.94985,63.9886895 123.459367,69.6925015 C122.697437,72.6082745 121.742779,74.7658201 120.597311,76.3074599 C119.416364,77.8968504 118.035435,78.8159377 116.464712,79.2290824 C112.356228,80.3097304 107.040306,78.0596681 100.813068,75.490715 C93.8717752,72.6271896 85.8220674,69.3189135 77.0526237,69.3189135 C68.1773902,69.3189135 60.127987,72.6272917 53.1869421,75.490715 C47.0530822,78.0211463 41.8041961,80.2390332 37.7208948,79.2753739 C36.1635398,78.907838 34.7878088,78.059271 33.605204,76.5710534 C32.4600176,75.1299239 31.4983862,73.102999 30.7225297,70.3612555 L30.5406425,69.6925015 C29.0509785,63.9918207 29.1927201,58.3536882 30.7618557,53.1111085 C32.3701904,47.7375623 35.4770556,42.7806996 39.8559862,38.5952268 C48.1601895,30.6578968 61.0274483,25.5 76.9473861,25.5 Z" id="形状结合" stroke="url(#linearGradient-5)" fill="url(#linearGradient-4)"></path>
                <rect id="矩形" fill="#F5EDFF" x="47.0000049" y="49" width="8" height="14" rx="4"></rect>
                <rect id="矩形" fill="#F5EDFF" x="99.0000049" y="49" width="8" height="14" rx="4"></rect>
            </g>
        </g>
    </g>
</svg>