<?xml version="1.0" standalone="no"?><!DOCTYPE svg PUBLIC "-//W3C//DTD SVG 1.1//EN" "http://www.w3.org/Graphics/SVG/1.1/DTD/svg11.dtd"><svg t="1684315644602" class="icon" viewBox="0 0 1024 1024" version="1.1" xmlns="http://www.w3.org/2000/svg" p-id="971" xmlns:xlink="http://www.w3.org/1999/xlink" width="200" height="200"><path d="M512 96C283.2 96 96 283.2 96 512s187.2 416 416 416 416-187.2 416-416S740.8 96 512 96z m0 124.8c68.6 0 124.8 56.2 124.8 124.8s-56.2 124.8-124.8 124.8-124.8-56.2-124.8-124.8 56.2-124.8 124.8-124.8z m0 600.8c-104 0-195.6-54-249.6-133.2 2-83.2 166.4-129 249.6-129s247.6 45.8 249.6 129c-54 79-145.6 133.2-249.6 133.2z" p-id="972" fill="#ffffff"></path></svg>